<svg width="34" height="34" viewBox="0 0 34 34" fill="none" xmlns="http://www.w3.org/2000/svg">
<g clip-path="url(#clip0_75_73)">
<path fill-rule="evenodd" clip-rule="evenodd" d="M8.5 0H12.75V4.25H21.25V8.5H18.8446C18.2128 12.0487 16.5447 15.2387 14.1644 17.7461C15.8645 18.5712 17.7594 19.0579 19.7614 19.1186L21.8312 12.75H27.0438L33.9501 34H29.4812L28.0999 29.75H20.775L19.3937 34H14.9249L18.4062 23.2883C15.5686 23.0106 12.9235 22.0762 10.625 20.639C7.85179 22.3728 4.57417 23.375 1.0625 23.375H0V19.125H1.0625C3.22171 19.125 5.26522 18.6296 7.08554 17.7461C5.7031 16.2899 4.56087 14.6033 3.72238 12.75H8.5463C9.13799 13.6742 9.83671 14.5232 10.625 15.2797C12.5108 13.47 13.8841 11.1303 14.5054 8.5H0V4.25H8.5V0ZM26.7187 25.5L24.4375 18.4809L22.1563 25.5H26.7187Z" fill="white"/>
</g>
<defs>
<clipPath id="clip0_75_73">
<rect width="34" height="34" fill="white"/>
</clipPath>
</defs>
</svg>
